<?xml version="1.0" encoding="UTF-8"?>
<svg width="68px" height="68px" viewBox="0 0 68 68" version="1.1" xmlns="http://www.w3.org/2000/svg" xmlns:xlink="http://www.w3.org/1999/xlink">
    <title>编组 6</title>
    <g id="页面-1" stroke="none" stroke-width="1" fill="none" fill-rule="evenodd">
        <g id="视频页-展开视频名称备份-5" transform="translate(-341.000000, -336.000000)" fill="#FFFFFF" fill-rule="nonzero">
            <g id="编组-6备份-3" transform="translate(-2.000000, 171.000000)">
                <g id="编组-6" transform="translate(343.000000, 165.000000)">
                    <g id="播放" transform="translate(25.000000, 22.000000)">
                        <path d="M1.95588235,0 C3.03608635,-1.98430255e-16 3.91176471,0.875678357 3.91176471,1.95588235 L3.91176471,22.0441176 C3.91176471,23.1243216 3.03608635,24 1.95588235,24 C0.875678357,24 -9.77936188e-16,23.1243216 0,22.0441176 L0,1.95588235 C-5.76376046e-16,0.875678357 0.875678357,1.98430255e-16 1.95588235,0 Z M17.0441176,0 C18.1243216,-1.98430255e-16 19,0.875678357 19,1.95588235 L19,22.0441176 C19,23.1243216 18.1243216,24 17.0441176,24 C15.9639137,24 15.0882353,23.1243216 15.0882353,22.0441176 L15.0882353,1.95588235 C15.0882353,0.875678357 15.9639137,1.98430255e-16 17.0441176,0 Z" id="形状结合"></path>
                    </g>
                    <g id="yunhang">
                        <path d="M34,0 C15.2529231,0 0,15.2529231 0,34 C0,52.7470769 15.2529231,68 34,68 C52.7470769,68 68,52.7470769 68,34 C68,15.2529231 52.7470769,0 34,0 Z M34,62.7692308 C18.1376923,62.7692308 5.23076923,49.8623077 5.23076923,34 C5.23076923,18.1376923 18.1376923,5.23076923 34,5.23076923 C49.8623077,5.23076923 62.7692308,18.1376923 62.7692308,34 C62.7692308,49.8623077 49.8623077,62.7692308 34,62.7692308 Z" id="形状"></path>
                    </g>
                </g>
            </g>
        </g>
    </g>
</svg>