<?xml version="1.0" encoding="UTF-8"?>
<svg width="16px" height="9px" viewBox="0 0 16 9" version="1.1" xmlns="http://www.w3.org/2000/svg" xmlns:xlink="http://www.w3.org/1999/xlink">
    <title>编组 27</title>
    <g id="学生" stroke="none" stroke-width="1" fill="none" fill-rule="evenodd">
        <g id="编组-27" transform="translate(0.560000, 0.566000)">
            <g id="cc备份" fill="#FFFFFF" fill-rule="nonzero">
                <path d="M3.528,0 C2.394,0 1.512,0.378 0.882,1.134 C0.294,1.82 0,2.716 0,3.808 C0,4.928 0.294,5.838 0.896,6.538 C1.512,7.266 2.38,7.63 3.5,7.63 C4.438,7.63 5.194,7.392 5.754,6.93 C6.328,6.454 6.706,5.726 6.874,4.746 L5.292,4.746 C5.166,5.796 4.578,6.328 3.514,6.328 C2.898,6.328 2.436,6.104 2.128,5.67 C1.792,5.222 1.638,4.592 1.638,3.794 C1.638,3.01 1.806,2.394 2.142,1.96 C2.478,1.512 2.94,1.302 3.528,1.302 C4.004,1.302 4.396,1.414 4.69,1.638 C4.97,1.862 5.166,2.198 5.264,2.66 L6.846,2.66 C6.706,1.75 6.342,1.078 5.768,0.63 C5.208,0.21 4.466,0 3.528,0 Z" id="路径"></path>
                <path d="M11.382,0 C10.248,0 9.366,0.378 8.736,1.134 C8.148,1.82 7.854,2.716 7.854,3.808 C7.854,4.928 8.148,5.838 8.75,6.538 C9.366,7.266 10.234,7.63 11.354,7.63 C12.292,7.63 13.048,7.392 13.608,6.93 C14.182,6.454 14.56,5.726 14.728,4.746 L13.146,4.746 C13.02,5.796 12.432,6.328 11.368,6.328 C10.752,6.328 10.29,6.104 9.982,5.67 C9.646,5.222 9.492,4.592 9.492,3.794 C9.492,3.01 9.66,2.394 9.996,1.96 C10.332,1.512 10.794,1.302 11.382,1.302 C11.858,1.302 12.25,1.414 12.544,1.638 C12.824,1.862 13.02,2.198 13.118,2.66 L14.7,2.66 C14.56,1.75 14.196,1.078 13.622,0.63 C13.062,0.21 12.32,0 11.382,0 Z" id="路径"></path>
            </g>
            <line x1="13.94" y1="6.934" x2="0.94" y2="0.934" id="直线-7" stroke="#FFFFFF" stroke-linecap="round"></line>
        </g>
    </g>
</svg>