<?xml version="1.0" encoding="UTF-8"?>
<svg width="40px" height="28px" viewBox="0 0 40 28" version="1.1" xmlns="http://www.w3.org/2000/svg" xmlns:xlink="http://www.w3.org/1999/xlink">
    <title>编组 33</title>
    <g id="学生" stroke="none" stroke-width="1" fill="none" fill-rule="evenodd">
        <g id="编组-33">
            <rect id="矩形" x="0" y="0" width="40" height="28"></rect>
            <g id="字幕" transform="translate(1.100000, 4.400000)" fill="#FFFFFF" fill-rule="nonzero">
                <path d="M17.5,2.14 L10.06,2.14 C9.8,1.34 9.52,0.64 9.24,0 L7.06,0.36 C7.38,0.9 7.66,1.5 7.94,2.14 L0.3,2.14 L0.3,6.82 L2.22,6.82 L2.22,3.94 L15.58,3.94 L15.58,6.82 L17.5,6.82 L17.5,2.14 Z M3.44,5.72 L3.44,7.48 L11.5,7.48 C10.7,7.96 9.6,8.58 8.2,9.32 L8.2,11.08 L-4.54747351e-13,11.08 L-4.54747351e-13,12.92 L8.2,12.92 L8.2,16.02 C8.2,16.6 7.96,16.9 7.48,16.9 C6.66,16.9 5.9,16.88 5.2,16.86 L5.66,18.58 L8.12,18.58 C9.44,18.58 10.1,17.94 10.1,16.68 L10.1,12.92 L17.82,12.92 L17.82,11.08 L10.1,11.08 L10.1,10.1 C11.66,9.24 13.06,8.36 14.32,7.48 L14.32,5.72 L3.44,5.72 Z" id="形状"></path>
                <path d="M28.04,12.3 L28.04,13.54 L24.36,13.54 C25.24,12.98 25.98,12.4 26.58,11.76 L31.7,11.76 C32.24,12.4 32.94,12.98 33.82,13.54 L29.84,13.54 L29.84,12.3 L28.04,12.3 Z M28.04,14.98 L28.04,18.68 L29.84,18.68 L29.84,14.98 L33.48,14.98 L33.48,15.94 C33.48,16.42 33.22,16.68 32.72,16.68 L31.44,16.62 L31.82,18.16 L33.22,18.16 C34.58,18.16 35.26,17.54 35.26,16.32 L35.26,14.32 C35.88,14.62 36.6,14.9 37.4,15.18 L38.16,13.6 C36.26,13.12 34.78,12.52 33.7,11.76 L37.56,11.76 L37.56,10.2 L27.72,10.2 C27.84,9.96 27.96,9.7 28.08,9.42 L35.48,9.42 L35.48,3.96 L33.22,3.96 L33.22,2.94 L37.8,2.94 L37.8,1.4 L33.22,1.4 L33.22,0.18 L31.4,0.18 L31.4,1.4 L26.42,1.4 L26.42,0.18 L24.6,0.18 L24.6,1.4 L20,1.4 L20,2.94 L24.6,2.94 L24.6,3.96 L22.34,3.96 L22.34,9.42 L26.32,9.42 C26.2,9.66 26.04,9.92 25.86,10.2 L20.24,10.2 L20.24,11.76 L24.2,11.76 C23.08,12.52 21.6,13.18 19.74,13.74 L20.56,15.32 C21.42,15 22.22,14.66 22.96,14.3 L22.96,18.12 L24.74,18.12 L24.74,14.98 L28.04,14.98 Z M31.4,2.94 L31.4,3.96 L26.42,3.96 L26.42,2.94 L31.4,2.94 Z M33.7,8.16 L24.12,8.16 L24.12,7.26 L33.7,7.26 L33.7,8.16 Z M24.12,6.08 L24.12,5.26 L33.7,5.26 L33.7,6.08 L24.12,6.08 Z" id="形状"></path>
            </g>
        </g>
    </g>
</svg>